# xmcd
#
# Track frame offsets: 
#        182
#        12947
#        25300
#        41567
#        54575
#        70517
#        87830
#        98012
#        113932
#        127340
#        141395
#        149680
#
# Disc length: 2229 seconds
#
# Revision: 0
# Processed by: cddbd v1.4PL0 Copyright (c) Steve Scherf et al.
# Submitted via: ExactAudioCopy v0.95a4
#
DISCID=ad08b30c
DTITLE=Andy Brown - You Gave Me A Mountain
DYEAR=1900
DGENRE=Country
TTITLE0=High Plains Drifter
TTITLE1=Picture Of Mother
TTITLE2=My Woman, My Woman, My Wife
TTITLE3=Old Red
TTITLE4=Womans Love
TTITLE5=Wind Beneath My Wings
TTITLE6=I'll Have To Make Some Changes
TTITLE7=Don't Close Your Eyes
TTITLE8=The Immigrant
TTITLE9=When My Blue Moon Turns To Gold Again
TTITLE10=Walkin' The Floor Over You
TTITLE11=You Gave Me A Mountain
EXTD=
EXTT0=
EXTT1=
EXTT2=
EXTT3=
EXTT4=
EXTT5=
EXTT6=
EXTT7=
EXTT8=
EXTT9=
EXTT10=
EXTT11=
PLAYORDER=
